<mxfile host="app.diagrams.net" agent="Mozilla/5.0 (Windows NT 10.0; Win64; x64) AppleWebKit/537.36 (KHTML, like Gecko) Chrome/135.0.0.0 Safari/537.36" version="26.2.12">
  <diagram id="C5RBs43oDa-KdzZeNtuy" name="Page-1">
    <mxGraphModel grid="1" page="1" gridSize="10" guides="1" tooltips="1" connect="1" arrows="1" fold="1" pageScale="1" pageWidth="827" pageHeight="1169" math="0" shadow="0">
      <root>
        <mxCell id="WIyWlLk6GJQsqaUBKTNV-0" />
        <mxCell id="WIyWlLk6GJQsqaUBKTNV-1" parent="WIyWlLk6GJQsqaUBKTNV-0" />
        <mxCell id="pk2nV7Zbf_Rz0RL35XwS-9" value="&lt;font style=&quot;color: rgb(127, 0, 255);&quot;&gt;Resolve referred nodes&lt;/font&gt;" style="swimlane;whiteSpace=wrap;html=1;" vertex="1" parent="WIyWlLk6GJQsqaUBKTNV-1">
          <mxGeometry x="-690" y="689" width="470" height="420" as="geometry" />
        </mxCell>
        <mxCell id="pk2nV7Zbf_Rz0RL35XwS-49" value="" style="edgeStyle=orthogonalEdgeStyle;rounded=0;orthogonalLoop=1;jettySize=auto;html=1;" edge="1" parent="pk2nV7Zbf_Rz0RL35XwS-9" source="pk2nV7Zbf_Rz0RL35XwS-10" target="pk2nV7Zbf_Rz0RL35XwS-12">
          <mxGeometry relative="1" as="geometry" />
        </mxCell>
        <mxCell id="pk2nV7Zbf_Rz0RL35XwS-10" value="illegal node&lt;br&gt;&amp;nbsp;ref" style="rhombus;whiteSpace=wrap;html=1;" vertex="1" parent="pk2nV7Zbf_Rz0RL35XwS-9">
          <mxGeometry x="340" y="140" width="85" height="80" as="geometry" />
        </mxCell>
        <mxCell id="pk2nV7Zbf_Rz0RL35XwS-12" value="ref is unresolved node" style="rhombus;whiteSpace=wrap;html=1;" vertex="1" parent="pk2nV7Zbf_Rz0RL35XwS-9">
          <mxGeometry x="210" y="140" width="80" height="80" as="geometry" />
        </mxCell>
        <mxCell id="pk2nV7Zbf_Rz0RL35XwS-13" value="error" style="rounded=1;whiteSpace=wrap;html=1;" vertex="1" parent="pk2nV7Zbf_Rz0RL35XwS-9">
          <mxGeometry x="327.5" y="277.5" width="110" height="25" as="geometry" />
        </mxCell>
        <mxCell id="pk2nV7Zbf_Rz0RL35XwS-14" value="wrap in Execution Node and run." style="rounded=1;whiteSpace=wrap;html=1;" vertex="1" parent="pk2nV7Zbf_Rz0RL35XwS-9">
          <mxGeometry x="50" y="150" width="120" height="60" as="geometry" />
        </mxCell>
        <mxCell id="pk2nV7Zbf_Rz0RL35XwS-22" value="all referred values handled" style="rhombus;whiteSpace=wrap;html=1;" vertex="1" parent="pk2nV7Zbf_Rz0RL35XwS-9">
          <mxGeometry x="345" y="40" width="76" height="80" as="geometry" />
        </mxCell>
        <mxCell id="pk2nV7Zbf_Rz0RL35XwS-27" value="add resolved value with key to output dict" style="rounded=1;whiteSpace=wrap;html=1;" vertex="1" parent="pk2nV7Zbf_Rz0RL35XwS-9">
          <mxGeometry x="50" y="260" width="120" height="60" as="geometry" />
        </mxCell>
        <mxCell id="pk2nV7Zbf_Rz0RL35XwS-28" value="" style="endArrow=classic;html=1;rounded=0;spacing=6;" edge="1" parent="pk2nV7Zbf_Rz0RL35XwS-9" target="pk2nV7Zbf_Rz0RL35XwS-12">
          <mxGeometry width="50" height="50" relative="1" as="geometry">
            <mxPoint x="340" y="180" as="sourcePoint" />
            <mxPoint x="390" y="130" as="targetPoint" />
          </mxGeometry>
        </mxCell>
        <mxCell id="pk2nV7Zbf_Rz0RL35XwS-58" value="No" style="edgeLabel;html=1;align=center;verticalAlign=middle;resizable=0;points=[];" connectable="0" vertex="1" parent="pk2nV7Zbf_Rz0RL35XwS-28">
          <mxGeometry x="-0.0234" y="1" relative="1" as="geometry">
            <mxPoint as="offset" />
          </mxGeometry>
        </mxCell>
        <mxCell id="pk2nV7Zbf_Rz0RL35XwS-29" value="" style="endArrow=classic;html=1;rounded=0;entryX=0.5;entryY=0;entryDx=0;entryDy=0;exitX=0.5;exitY=1;exitDx=0;exitDy=0;" edge="1" parent="pk2nV7Zbf_Rz0RL35XwS-9" source="pk2nV7Zbf_Rz0RL35XwS-22" target="pk2nV7Zbf_Rz0RL35XwS-10">
          <mxGeometry width="50" height="50" relative="1" as="geometry">
            <mxPoint x="380" y="120" as="sourcePoint" />
            <mxPoint x="430" y="70" as="targetPoint" />
          </mxGeometry>
        </mxCell>
        <mxCell id="pk2nV7Zbf_Rz0RL35XwS-47" value="No" style="edgeLabel;html=1;align=center;verticalAlign=middle;resizable=0;points=[];" connectable="0" vertex="1" parent="pk2nV7Zbf_Rz0RL35XwS-29">
          <mxGeometry x="0.0943" y="2" relative="1" as="geometry">
            <mxPoint as="offset" />
          </mxGeometry>
        </mxCell>
        <mxCell id="pk2nV7Zbf_Rz0RL35XwS-30" value="" style="endArrow=classic;html=1;rounded=0;exitX=0.5;exitY=1;exitDx=0;exitDy=0;" edge="1" parent="pk2nV7Zbf_Rz0RL35XwS-9" source="pk2nV7Zbf_Rz0RL35XwS-10">
          <mxGeometry width="50" height="50" relative="1" as="geometry">
            <mxPoint x="400" y="250" as="sourcePoint" />
            <mxPoint x="383" y="280" as="targetPoint" />
          </mxGeometry>
        </mxCell>
        <mxCell id="pk2nV7Zbf_Rz0RL35XwS-51" value="No" style="edgeLabel;html=1;align=center;verticalAlign=middle;resizable=0;points=[];" connectable="0" vertex="1" parent="pk2nV7Zbf_Rz0RL35XwS-30">
          <mxGeometry x="-0.1334" relative="1" as="geometry">
            <mxPoint as="offset" />
          </mxGeometry>
        </mxCell>
        <mxCell id="pk2nV7Zbf_Rz0RL35XwS-59" value="yes" style="edgeLabel;html=1;align=center;verticalAlign=middle;resizable=0;points=[];" connectable="0" vertex="1" parent="pk2nV7Zbf_Rz0RL35XwS-30">
          <mxGeometry x="-0.1436" relative="1" as="geometry">
            <mxPoint as="offset" />
          </mxGeometry>
        </mxCell>
        <mxCell id="pk2nV7Zbf_Rz0RL35XwS-31" value="" style="endArrow=classic;html=1;rounded=0;entryX=1;entryY=0.5;entryDx=0;entryDy=0;" edge="1" parent="pk2nV7Zbf_Rz0RL35XwS-9" target="pk2nV7Zbf_Rz0RL35XwS-14">
          <mxGeometry width="50" height="50" relative="1" as="geometry">
            <mxPoint x="210" y="180" as="sourcePoint" />
            <mxPoint x="260" y="130" as="targetPoint" />
          </mxGeometry>
        </mxCell>
        <mxCell id="pk2nV7Zbf_Rz0RL35XwS-61" value="yes" style="edgeLabel;html=1;align=center;verticalAlign=middle;resizable=0;points=[];" connectable="0" vertex="1" parent="pk2nV7Zbf_Rz0RL35XwS-31">
          <mxGeometry x="-0.1069" y="-2" relative="1" as="geometry">
            <mxPoint as="offset" />
          </mxGeometry>
        </mxCell>
        <mxCell id="pk2nV7Zbf_Rz0RL35XwS-33" value="" style="endArrow=classic;html=1;rounded=0;entryX=1;entryY=0.5;entryDx=0;entryDy=0;edgeStyle=orthogonalEdgeStyle;" edge="1" parent="pk2nV7Zbf_Rz0RL35XwS-9" target="pk2nV7Zbf_Rz0RL35XwS-27">
          <mxGeometry width="50" height="50" relative="1" as="geometry">
            <mxPoint x="250" y="220" as="sourcePoint" />
            <mxPoint x="180" y="290" as="targetPoint" />
            <Array as="points">
              <mxPoint x="250" y="290" />
            </Array>
          </mxGeometry>
        </mxCell>
        <mxCell id="pk2nV7Zbf_Rz0RL35XwS-62" value="no" style="edgeLabel;html=1;align=center;verticalAlign=middle;resizable=0;points=[];" connectable="0" vertex="1" parent="pk2nV7Zbf_Rz0RL35XwS-33">
          <mxGeometry x="-0.7771" y="1" relative="1" as="geometry">
            <mxPoint as="offset" />
          </mxGeometry>
        </mxCell>
        <mxCell id="pk2nV7Zbf_Rz0RL35XwS-34" value="" style="endArrow=classic;html=1;rounded=0;entryX=0.5;entryY=0;entryDx=0;entryDy=0;" edge="1" parent="pk2nV7Zbf_Rz0RL35XwS-9" target="pk2nV7Zbf_Rz0RL35XwS-27">
          <mxGeometry width="50" height="50" relative="1" as="geometry">
            <mxPoint x="110" y="210" as="sourcePoint" />
            <mxPoint x="160" y="160" as="targetPoint" />
          </mxGeometry>
        </mxCell>
        <mxCell id="pk2nV7Zbf_Rz0RL35XwS-36" value="" style="endArrow=classic;html=1;rounded=0;entryX=0;entryY=0.5;entryDx=0;entryDy=0;entryPerimeter=0;" edge="1" parent="pk2nV7Zbf_Rz0RL35XwS-9" target="pk2nV7Zbf_Rz0RL35XwS-63">
          <mxGeometry width="50" height="50" relative="1" as="geometry">
            <mxPoint x="420" y="80" as="sourcePoint" />
            <mxPoint x="503.8000000000002" y="80" as="targetPoint" />
          </mxGeometry>
        </mxCell>
        <mxCell id="pk2nV7Zbf_Rz0RL35XwS-46" value="yes" style="edgeLabel;html=1;align=center;verticalAlign=middle;resizable=0;points=[];" connectable="0" vertex="1" parent="pk2nV7Zbf_Rz0RL35XwS-36">
          <mxGeometry y="10" relative="1" as="geometry">
            <mxPoint as="offset" />
          </mxGeometry>
        </mxCell>
        <mxCell id="pk2nV7Zbf_Rz0RL35XwS-43" value="resolved values" style="shape=parallelogram;perimeter=parallelogramPerimeter;whiteSpace=wrap;html=1;fixedSize=1;" vertex="1" parent="pk2nV7Zbf_Rz0RL35XwS-9">
          <mxGeometry x="50" y="340" width="120" height="60" as="geometry" />
        </mxCell>
        <mxCell id="pk2nV7Zbf_Rz0RL35XwS-44" value="" style="endArrow=classic;html=1;rounded=0;" edge="1" parent="pk2nV7Zbf_Rz0RL35XwS-9" target="pk2nV7Zbf_Rz0RL35XwS-43">
          <mxGeometry width="50" height="50" relative="1" as="geometry">
            <mxPoint x="110" y="320" as="sourcePoint" />
            <mxPoint x="160" y="270" as="targetPoint" />
          </mxGeometry>
        </mxCell>
        <mxCell id="pk2nV7Zbf_Rz0RL35XwS-54" value="" style="endArrow=classic;html=1;rounded=0;exitX=0;exitY=0.5;exitDx=0;exitDy=0;entryX=0;entryY=0.5;entryDx=0;entryDy=0;edgeStyle=orthogonalEdgeStyle;" edge="1" parent="pk2nV7Zbf_Rz0RL35XwS-9" source="pk2nV7Zbf_Rz0RL35XwS-27" target="pk2nV7Zbf_Rz0RL35XwS-22">
          <mxGeometry width="50" height="50" relative="1" as="geometry">
            <mxPoint x="30" y="260" as="sourcePoint" />
            <mxPoint x="80" y="210" as="targetPoint" />
            <Array as="points">
              <mxPoint x="20" y="290" />
              <mxPoint x="20" y="80" />
            </Array>
          </mxGeometry>
        </mxCell>
        <mxCell id="pk2nV7Zbf_Rz0RL35XwS-60" value="next" style="edgeLabel;html=1;align=center;verticalAlign=middle;resizable=0;points=[];" connectable="0" vertex="1" parent="pk2nV7Zbf_Rz0RL35XwS-54">
          <mxGeometry x="0.4442" y="-1" relative="1" as="geometry">
            <mxPoint as="offset" />
          </mxGeometry>
        </mxCell>
        <mxCell id="pk2nV7Zbf_Rz0RL35XwS-63" value="resolved values" style="strokeWidth=2;html=1;shape=mxgraph.flowchart.terminator;whiteSpace=wrap;" vertex="1" parent="WIyWlLk6GJQsqaUBKTNV-1">
          <mxGeometry x="-180" y="739" width="100" height="60" as="geometry" />
        </mxCell>
        <mxCell id="pk2nV7Zbf_Rz0RL35XwS-64" value="&lt;font style=&quot;color: rgb(204, 0, 0);&quot;&gt;Resolve node&lt;/font&gt;" style="swimlane;whiteSpace=wrap;html=1;startSize=23;" vertex="1" parent="WIyWlLk6GJQsqaUBKTNV-1">
          <mxGeometry x="-40" y="760" width="600" height="340" as="geometry" />
        </mxCell>
        <mxCell id="pk2nV7Zbf_Rz0RL35XwS-65" value="parm is a referred node" style="rhombus;whiteSpace=wrap;html=1;" vertex="1" parent="pk2nV7Zbf_Rz0RL35XwS-64">
          <mxGeometry x="40" y="30" width="80" height="80" as="geometry" />
        </mxCell>
        <mxCell id="pk2nV7Zbf_Rz0RL35XwS-66" value="&lt;font style=&quot;color: rgb(127, 0, 255);&quot;&gt;Resolve referred nodes&lt;/font&gt;" style="rounded=1;whiteSpace=wrap;html=1;" vertex="1" parent="pk2nV7Zbf_Rz0RL35XwS-64">
          <mxGeometry x="250" y="40" width="120" height="60" as="geometry" />
        </mxCell>
        <mxCell id="pk2nV7Zbf_Rz0RL35XwS-67" value="parm is a&lt;div&gt;graph parm&lt;/div&gt;" style="rhombus;whiteSpace=wrap;html=1;" vertex="1" parent="pk2nV7Zbf_Rz0RL35XwS-64">
          <mxGeometry x="40" y="150" width="80" height="80" as="geometry" />
        </mxCell>
        <mxCell id="pk2nV7Zbf_Rz0RL35XwS-68" value="Fetch graph parameter" style="rounded=1;whiteSpace=wrap;html=1;" vertex="1" parent="pk2nV7Zbf_Rz0RL35XwS-64">
          <mxGeometry x="250" y="168.5" width="120" height="43" as="geometry" />
        </mxCell>
        <mxCell id="pk2nV7Zbf_Rz0RL35XwS-70" value="parm is direct value" style="rounded=1;whiteSpace=wrap;html=1;" vertex="1" parent="pk2nV7Zbf_Rz0RL35XwS-64">
          <mxGeometry x="40" y="270" width="120" height="30" as="geometry" />
        </mxCell>
        <mxCell id="pk2nV7Zbf_Rz0RL35XwS-71" value="" style="endArrow=classic;html=1;rounded=0;entryX=0.5;entryY=0;entryDx=0;entryDy=0;exitX=0.5;exitY=1;exitDx=0;exitDy=0;" edge="1" parent="pk2nV7Zbf_Rz0RL35XwS-64" target="pk2nV7Zbf_Rz0RL35XwS-67" source="pk2nV7Zbf_Rz0RL35XwS-65">
          <mxGeometry width="50" height="50" relative="1" as="geometry">
            <mxPoint x="50" y="110" as="sourcePoint" />
            <mxPoint x="100" y="60" as="targetPoint" />
          </mxGeometry>
        </mxCell>
        <mxCell id="pk2nV7Zbf_Rz0RL35XwS-72" value="No" style="edgeLabel;html=1;align=center;verticalAlign=middle;resizable=0;points=[];" connectable="0" vertex="1" parent="pk2nV7Zbf_Rz0RL35XwS-71">
          <mxGeometry x="-0.2989" y="-2" relative="1" as="geometry">
            <mxPoint as="offset" />
          </mxGeometry>
        </mxCell>
        <mxCell id="pk2nV7Zbf_Rz0RL35XwS-73" value="" style="endArrow=classic;html=1;rounded=0;entryX=0.34;entryY=-0.017;entryDx=0;entryDy=0;entryPerimeter=0;exitX=0.509;exitY=1.058;exitDx=0;exitDy=0;exitPerimeter=0;" edge="1" parent="pk2nV7Zbf_Rz0RL35XwS-64" source="pk2nV7Zbf_Rz0RL35XwS-67" target="pk2nV7Zbf_Rz0RL35XwS-70">
          <mxGeometry width="50" height="50" relative="1" as="geometry">
            <mxPoint x="51" y="230" as="sourcePoint" />
            <mxPoint x="100" y="170" as="targetPoint" />
          </mxGeometry>
        </mxCell>
        <mxCell id="pk2nV7Zbf_Rz0RL35XwS-74" value="No" style="edgeLabel;html=1;align=center;verticalAlign=middle;resizable=0;points=[];" connectable="0" vertex="1" parent="pk2nV7Zbf_Rz0RL35XwS-73">
          <mxGeometry x="-0.3926" y="2" relative="1" as="geometry">
            <mxPoint as="offset" />
          </mxGeometry>
        </mxCell>
        <mxCell id="pk2nV7Zbf_Rz0RL35XwS-75" value="" style="endArrow=classic;html=1;rounded=0;exitX=1;exitY=0.5;exitDx=0;exitDy=0;" edge="1" parent="pk2nV7Zbf_Rz0RL35XwS-64" source="pk2nV7Zbf_Rz0RL35XwS-65" target="pk2nV7Zbf_Rz0RL35XwS-66">
          <mxGeometry width="50" height="50" relative="1" as="geometry">
            <mxPoint x="80" y="80" as="sourcePoint" />
            <mxPoint x="130" y="30" as="targetPoint" />
          </mxGeometry>
        </mxCell>
        <mxCell id="pk2nV7Zbf_Rz0RL35XwS-77" value="yes" style="edgeLabel;html=1;align=center;verticalAlign=middle;resizable=0;points=[];" connectable="0" vertex="1" parent="pk2nV7Zbf_Rz0RL35XwS-75">
          <mxGeometry x="-0.3628" y="2" relative="1" as="geometry">
            <mxPoint as="offset" />
          </mxGeometry>
        </mxCell>
        <mxCell id="pk2nV7Zbf_Rz0RL35XwS-76" value="" style="endArrow=classic;html=1;rounded=0;entryX=0;entryY=0.5;entryDx=0;entryDy=0;exitX=1;exitY=0.5;exitDx=0;exitDy=0;" edge="1" parent="pk2nV7Zbf_Rz0RL35XwS-64" source="pk2nV7Zbf_Rz0RL35XwS-67" target="pk2nV7Zbf_Rz0RL35XwS-68">
          <mxGeometry width="50" height="50" relative="1" as="geometry">
            <mxPoint x="90" y="180" as="sourcePoint" />
            <mxPoint x="140" y="130" as="targetPoint" />
          </mxGeometry>
        </mxCell>
        <mxCell id="pk2nV7Zbf_Rz0RL35XwS-78" value="yes" style="edgeLabel;html=1;align=center;verticalAlign=middle;resizable=0;points=[];" connectable="0" vertex="1" parent="pk2nV7Zbf_Rz0RL35XwS-76">
          <mxGeometry x="-0.3076" y="1" relative="1" as="geometry">
            <mxPoint as="offset" />
          </mxGeometry>
        </mxCell>
        <mxCell id="pk2nV7Zbf_Rz0RL35XwS-80" value="" style="endArrow=classic;html=1;rounded=0;edgeStyle=orthogonalEdgeStyle;entryX=0;entryY=0.5;entryDx=0;entryDy=0;entryPerimeter=0;" edge="1" parent="pk2nV7Zbf_Rz0RL35XwS-64" target="pk2nV7Zbf_Rz0RL35XwS-79">
          <mxGeometry width="50" height="50" relative="1" as="geometry">
            <mxPoint x="370" y="71" as="sourcePoint" />
            <mxPoint x="660" y="140" as="targetPoint" />
            <Array as="points">
              <mxPoint x="410" y="71" />
              <mxPoint x="410" y="139" />
            </Array>
          </mxGeometry>
        </mxCell>
        <mxCell id="pk2nV7Zbf_Rz0RL35XwS-81" value="" style="endArrow=classic;html=1;rounded=0;entryX=0;entryY=0.5;entryDx=0;entryDy=0;entryPerimeter=0;edgeStyle=orthogonalEdgeStyle;" edge="1" parent="pk2nV7Zbf_Rz0RL35XwS-64" target="pk2nV7Zbf_Rz0RL35XwS-79">
          <mxGeometry width="50" height="50" relative="1" as="geometry">
            <mxPoint x="370" y="191" as="sourcePoint" />
            <mxPoint x="310" y="140" as="targetPoint" />
            <Array as="points">
              <mxPoint x="410" y="191" />
              <mxPoint x="410" y="139" />
            </Array>
          </mxGeometry>
        </mxCell>
        <mxCell id="pk2nV7Zbf_Rz0RL35XwS-83" value="" style="endArrow=classic;html=1;rounded=0;edgeStyle=orthogonalEdgeStyle;entryX=0;entryY=0.5;entryDx=0;entryDy=0;entryPerimeter=0;" edge="1" parent="pk2nV7Zbf_Rz0RL35XwS-64" target="pk2nV7Zbf_Rz0RL35XwS-79">
          <mxGeometry width="50" height="50" relative="1" as="geometry">
            <mxPoint x="160" y="291" as="sourcePoint" />
            <mxPoint x="320" y="140" as="targetPoint" />
            <Array as="points">
              <mxPoint x="160" y="290" />
              <mxPoint x="160" y="291" />
              <mxPoint x="410" y="291" />
              <mxPoint x="410" y="140" />
              <mxPoint x="670" y="140" />
            </Array>
          </mxGeometry>
        </mxCell>
        <mxCell id="pk2nV7Zbf_Rz0RL35XwS-79" value="return resolved values" style="strokeWidth=2;html=1;shape=mxgraph.flowchart.terminator;whiteSpace=wrap;" vertex="1" parent="WIyWlLk6GJQsqaUBKTNV-1">
          <mxGeometry x="630" y="869" width="100" height="60" as="geometry" />
        </mxCell>
        <mxCell id="pk2nV7Zbf_Rz0RL35XwS-84" value="&lt;font style=&quot;color: rgb(51, 51, 255);&quot;&gt;Resolve list parameter&lt;/font&gt;" style="swimlane;whiteSpace=wrap;html=1;" vertex="1" parent="WIyWlLk6GJQsqaUBKTNV-1">
          <mxGeometry x="-40" y="360" width="600" height="356" as="geometry" />
        </mxCell>
        <mxCell id="pk2nV7Zbf_Rz0RL35XwS-85" value="all parms&lt;br&gt;handled" style="rhombus;whiteSpace=wrap;html=1;" vertex="1" parent="pk2nV7Zbf_Rz0RL35XwS-84">
          <mxGeometry x="43" y="56" width="80" height="80" as="geometry" />
        </mxCell>
        <mxCell id="pk2nV7Zbf_Rz0RL35XwS-86" value="parm is dict but not RasterData" style="rhombus;whiteSpace=wrap;html=1;" vertex="1" parent="pk2nV7Zbf_Rz0RL35XwS-84">
          <mxGeometry x="43" y="176" width="80" height="80" as="geometry" />
        </mxCell>
        <mxCell id="pk2nV7Zbf_Rz0RL35XwS-87" value="all items in dict handled" style="rhombus;whiteSpace=wrap;html=1;direction=south;" vertex="1" parent="pk2nV7Zbf_Rz0RL35XwS-84">
          <mxGeometry x="155" y="176" width="80" height="80" as="geometry" />
        </mxCell>
        <mxCell id="pk2nV7Zbf_Rz0RL35XwS-88" value="if item is ref node" style="rhombus;whiteSpace=wrap;html=1;" vertex="1" parent="pk2nV7Zbf_Rz0RL35XwS-84">
          <mxGeometry x="260" y="176" width="80" height="80" as="geometry" />
        </mxCell>
        <mxCell id="pk2nV7Zbf_Rz0RL35XwS-89" value="&lt;font style=&quot;color: rgb(204, 0, 0);&quot;&gt;resolve node&lt;/font&gt;" style="rounded=1;whiteSpace=wrap;html=1;" vertex="1" parent="pk2nV7Zbf_Rz0RL35XwS-84">
          <mxGeometry x="394" y="200" width="120" height="30" as="geometry" />
        </mxCell>
        <mxCell id="pk2nV7Zbf_Rz0RL35XwS-90" value="add to resolved list" style="rounded=1;whiteSpace=wrap;html=1;" vertex="1" parent="pk2nV7Zbf_Rz0RL35XwS-84">
          <mxGeometry x="394" y="255" width="110" height="24" as="geometry" />
        </mxCell>
        <mxCell id="pk2nV7Zbf_Rz0RL35XwS-91" value="" style="endArrow=classic;html=1;rounded=0;" edge="1" parent="pk2nV7Zbf_Rz0RL35XwS-84" target="pk2nV7Zbf_Rz0RL35XwS-90">
          <mxGeometry width="50" height="50" relative="1" as="geometry">
            <mxPoint x="450" y="229" as="sourcePoint" />
            <mxPoint x="500" y="179" as="targetPoint" />
          </mxGeometry>
        </mxCell>
        <mxCell id="pk2nV7Zbf_Rz0RL35XwS-92" value="" style="endArrow=classic;html=1;rounded=0;exitX=1;exitY=0.5;exitDx=0;exitDy=0;" edge="1" parent="pk2nV7Zbf_Rz0RL35XwS-84" source="pk2nV7Zbf_Rz0RL35XwS-88" target="pk2nV7Zbf_Rz0RL35XwS-89">
          <mxGeometry width="50" height="50" relative="1" as="geometry">
            <mxPoint x="380" y="215" as="sourcePoint" />
            <mxPoint x="420" y="149" as="targetPoint" />
          </mxGeometry>
        </mxCell>
        <mxCell id="0bq6ZQVKfzW2vNhxdIj2-56" value="yes" style="edgeLabel;html=1;align=center;verticalAlign=middle;resizable=0;points=[];" connectable="0" vertex="1" parent="pk2nV7Zbf_Rz0RL35XwS-92">
          <mxGeometry x="0.033" relative="1" as="geometry">
            <mxPoint x="1" as="offset" />
          </mxGeometry>
        </mxCell>
        <mxCell id="pk2nV7Zbf_Rz0RL35XwS-93" value="" style="endArrow=classic;html=1;rounded=0;exitX=0.5;exitY=0;exitDx=0;exitDy=0;entryX=0;entryY=0.5;entryDx=0;entryDy=0;" edge="1" parent="pk2nV7Zbf_Rz0RL35XwS-84" source="pk2nV7Zbf_Rz0RL35XwS-87" target="pk2nV7Zbf_Rz0RL35XwS-88">
          <mxGeometry width="50" height="50" relative="1" as="geometry">
            <mxPoint x="250" y="210" as="sourcePoint" />
            <mxPoint x="300" y="160" as="targetPoint" />
          </mxGeometry>
        </mxCell>
        <mxCell id="pk2nV7Zbf_Rz0RL35XwS-94" value="" style="endArrow=classic;html=1;rounded=0;exitX=0.5;exitY=1;exitDx=0;exitDy=0;entryX=0;entryY=0.5;entryDx=0;entryDy=0;edgeStyle=orthogonalEdgeStyle;" edge="1" parent="pk2nV7Zbf_Rz0RL35XwS-84" source="pk2nV7Zbf_Rz0RL35XwS-88" target="pk2nV7Zbf_Rz0RL35XwS-90">
          <mxGeometry width="50" height="50" relative="1" as="geometry">
            <mxPoint x="270" y="320" as="sourcePoint" />
            <mxPoint x="320" y="270" as="targetPoint" />
          </mxGeometry>
        </mxCell>
        <mxCell id="0bq6ZQVKfzW2vNhxdIj2-57" value="no" style="edgeLabel;html=1;align=center;verticalAlign=middle;resizable=0;points=[];" connectable="0" vertex="1" parent="pk2nV7Zbf_Rz0RL35XwS-94">
          <mxGeometry x="-0.8958" y="3" relative="1" as="geometry">
            <mxPoint as="offset" />
          </mxGeometry>
        </mxCell>
        <mxCell id="pk2nV7Zbf_Rz0RL35XwS-95" value="" style="endArrow=classic;html=1;rounded=0;exitX=0.5;exitY=1;exitDx=0;exitDy=0;entryX=0;entryY=0.5;entryDx=0;entryDy=0;edgeStyle=orthogonalEdgeStyle;" edge="1" parent="pk2nV7Zbf_Rz0RL35XwS-84" source="pk2nV7Zbf_Rz0RL35XwS-86" target="pk2nV7Zbf_Rz0RL35XwS-90">
          <mxGeometry width="50" height="50" relative="1" as="geometry">
            <mxPoint x="100" y="310" as="sourcePoint" />
            <mxPoint x="150" y="260" as="targetPoint" />
          </mxGeometry>
        </mxCell>
        <mxCell id="0bq6ZQVKfzW2vNhxdIj2-54" value="no" style="edgeLabel;html=1;align=center;verticalAlign=middle;resizable=0;points=[];" connectable="0" vertex="1" parent="pk2nV7Zbf_Rz0RL35XwS-95">
          <mxGeometry x="-0.6463" y="-1" relative="1" as="geometry">
            <mxPoint as="offset" />
          </mxGeometry>
        </mxCell>
        <mxCell id="pk2nV7Zbf_Rz0RL35XwS-96" value="" style="endArrow=classic;html=1;rounded=0;exitX=1;exitY=0.5;exitDx=0;exitDy=0;entryX=0;entryY=0.5;entryDx=0;entryDy=0;edgeStyle=orthogonalEdgeStyle;" edge="1" parent="pk2nV7Zbf_Rz0RL35XwS-84" source="pk2nV7Zbf_Rz0RL35XwS-90" target="pk2nV7Zbf_Rz0RL35XwS-87">
          <mxGeometry width="50" height="50" relative="1" as="geometry">
            <mxPoint x="510" y="270" as="sourcePoint" />
            <mxPoint x="560" y="220" as="targetPoint" />
            <Array as="points">
              <mxPoint x="540" y="267" />
              <mxPoint x="540" y="166" />
              <mxPoint x="195" y="166" />
            </Array>
          </mxGeometry>
        </mxCell>
        <mxCell id="pk2nV7Zbf_Rz0RL35XwS-101" value="next item" style="edgeLabel;html=1;align=center;verticalAlign=middle;resizable=0;points=[];" connectable="0" vertex="1" parent="pk2nV7Zbf_Rz0RL35XwS-96">
          <mxGeometry x="0.2141" y="-1" relative="1" as="geometry">
            <mxPoint as="offset" />
          </mxGeometry>
        </mxCell>
        <mxCell id="pk2nV7Zbf_Rz0RL35XwS-97" value="resolved list" style="shape=parallelogram;html=1;strokeWidth=2;perimeter=parallelogramPerimeter;whiteSpace=wrap;rounded=1;arcSize=12;size=0.23;" vertex="1" parent="pk2nV7Zbf_Rz0RL35XwS-84">
          <mxGeometry x="394" y="300" width="97" height="30" as="geometry" />
        </mxCell>
        <mxCell id="pk2nV7Zbf_Rz0RL35XwS-98" value="" style="endArrow=classic;html=1;rounded=0;exitX=0.5;exitY=1;exitDx=0;exitDy=0;entryX=0.57;entryY=0.056;entryDx=0;entryDy=0;entryPerimeter=0;" edge="1" parent="pk2nV7Zbf_Rz0RL35XwS-84" source="pk2nV7Zbf_Rz0RL35XwS-90" target="pk2nV7Zbf_Rz0RL35XwS-97">
          <mxGeometry width="50" height="50" relative="1" as="geometry">
            <mxPoint x="320" y="330" as="sourcePoint" />
            <mxPoint x="370" y="280" as="targetPoint" />
          </mxGeometry>
        </mxCell>
        <mxCell id="pk2nV7Zbf_Rz0RL35XwS-99" value="" style="endArrow=classic;html=1;rounded=0;exitX=1;exitY=0.5;exitDx=0;exitDy=0;entryX=0;entryY=0.5;entryDx=0;entryDy=0;edgeStyle=orthogonalEdgeStyle;" edge="1" parent="pk2nV7Zbf_Rz0RL35XwS-84" source="pk2nV7Zbf_Rz0RL35XwS-87" target="pk2nV7Zbf_Rz0RL35XwS-85">
          <mxGeometry width="50" height="50" relative="1" as="geometry">
            <mxPoint x="170" y="330" as="sourcePoint" />
            <mxPoint x="220" y="280" as="targetPoint" />
            <Array as="points">
              <mxPoint x="195" y="300" />
              <mxPoint x="20" y="300" />
              <mxPoint x="20" y="96" />
            </Array>
          </mxGeometry>
        </mxCell>
        <mxCell id="pk2nV7Zbf_Rz0RL35XwS-100" value="next parm" style="edgeLabel;html=1;align=center;verticalAlign=middle;resizable=0;points=[];" connectable="0" vertex="1" parent="pk2nV7Zbf_Rz0RL35XwS-99">
          <mxGeometry x="-0.2874" y="2" relative="1" as="geometry">
            <mxPoint as="offset" />
          </mxGeometry>
        </mxCell>
        <mxCell id="pk2nV7Zbf_Rz0RL35XwS-102" value="" style="endArrow=classic;html=1;rounded=0;exitX=0.5;exitY=1;exitDx=0;exitDy=0;entryX=0.5;entryY=0;entryDx=0;entryDy=0;" edge="1" parent="pk2nV7Zbf_Rz0RL35XwS-84" source="pk2nV7Zbf_Rz0RL35XwS-85" target="pk2nV7Zbf_Rz0RL35XwS-86">
          <mxGeometry width="50" height="50" relative="1" as="geometry">
            <mxPoint x="150" y="140" as="sourcePoint" />
            <mxPoint x="200" y="90" as="targetPoint" />
          </mxGeometry>
        </mxCell>
        <mxCell id="0bq6ZQVKfzW2vNhxdIj2-1" value="No" style="edgeLabel;html=1;align=center;verticalAlign=middle;resizable=0;points=[];" connectable="0" vertex="1" parent="pk2nV7Zbf_Rz0RL35XwS-102">
          <mxGeometry x="-0.05" relative="1" as="geometry">
            <mxPoint as="offset" />
          </mxGeometry>
        </mxCell>
        <mxCell id="pk2nV7Zbf_Rz0RL35XwS-103" value="" style="endArrow=classic;html=1;rounded=0;exitX=1;exitY=0.5;exitDx=0;exitDy=0;" edge="1" parent="pk2nV7Zbf_Rz0RL35XwS-84" source="pk2nV7Zbf_Rz0RL35XwS-85">
          <mxGeometry width="50" height="50" relative="1" as="geometry">
            <mxPoint x="130" y="106" as="sourcePoint" />
            <mxPoint x="630" y="96" as="targetPoint" />
          </mxGeometry>
        </mxCell>
        <mxCell id="0bq6ZQVKfzW2vNhxdIj2-2" value="yes" style="edgeLabel;html=1;align=center;verticalAlign=middle;resizable=0;points=[];" connectable="0" vertex="1" parent="pk2nV7Zbf_Rz0RL35XwS-103">
          <mxGeometry x="-0.7594" y="2" relative="1" as="geometry">
            <mxPoint as="offset" />
          </mxGeometry>
        </mxCell>
        <mxCell id="0bq6ZQVKfzW2vNhxdIj2-53" value="" style="endArrow=classic;html=1;rounded=0;exitX=1;exitY=0.5;exitDx=0;exitDy=0;entryX=0.5;entryY=1;entryDx=0;entryDy=0;" edge="1" parent="pk2nV7Zbf_Rz0RL35XwS-84" source="pk2nV7Zbf_Rz0RL35XwS-86" target="pk2nV7Zbf_Rz0RL35XwS-87">
          <mxGeometry width="50" height="50" relative="1" as="geometry">
            <mxPoint x="230" y="80" as="sourcePoint" />
            <mxPoint x="280" y="30" as="targetPoint" />
          </mxGeometry>
        </mxCell>
        <mxCell id="0bq6ZQVKfzW2vNhxdIj2-55" value="yes" style="edgeLabel;html=1;align=center;verticalAlign=middle;resizable=0;points=[];" connectable="0" vertex="1" parent="0bq6ZQVKfzW2vNhxdIj2-53">
          <mxGeometry x="-0.4967" y="2" relative="1" as="geometry">
            <mxPoint as="offset" />
          </mxGeometry>
        </mxCell>
        <mxCell id="pk2nV7Zbf_Rz0RL35XwS-104" value="resolved values" style="strokeWidth=2;html=1;shape=mxgraph.flowchart.terminator;whiteSpace=wrap;" vertex="1" parent="WIyWlLk6GJQsqaUBKTNV-1">
          <mxGeometry x="590" y="426" width="100" height="60" as="geometry" />
        </mxCell>
        <mxCell id="0bq6ZQVKfzW2vNhxdIj2-0" value="&lt;font style=&quot;color: rgb(0, 153, 0);&quot;&gt;Resolve Complex parameter&lt;/font&gt;" style="swimlane;whiteSpace=wrap;html=1;" vertex="1" parent="WIyWlLk6GJQsqaUBKTNV-1">
          <mxGeometry x="-40" y="110" width="370" height="230" as="geometry" />
        </mxCell>
        <mxCell id="0bq6ZQVKfzW2vNhxdIj2-4" value="key is referral&lt;br&gt;node" style="rhombus;whiteSpace=wrap;html=1;" vertex="1" parent="0bq6ZQVKfzW2vNhxdIj2-0">
          <mxGeometry x="40" y="40" width="80" height="80" as="geometry" />
        </mxCell>
        <mxCell id="0bq6ZQVKfzW2vNhxdIj2-6" value="&lt;font style=&quot;color: rgb(204, 0, 0);&quot;&gt;resolve parameter as node&lt;/font&gt;" style="rounded=1;whiteSpace=wrap;html=1;" vertex="1" parent="0bq6ZQVKfzW2vNhxdIj2-0">
          <mxGeometry x="20" y="155" width="120" height="40" as="geometry" />
        </mxCell>
        <mxCell id="0bq6ZQVKfzW2vNhxdIj2-9" value="" style="endArrow=classic;html=1;rounded=0;entryX=0.5;entryY=0;entryDx=0;entryDy=0;exitX=0.5;exitY=1;exitDx=0;exitDy=0;" edge="1" parent="0bq6ZQVKfzW2vNhxdIj2-0" source="0bq6ZQVKfzW2vNhxdIj2-4" target="0bq6ZQVKfzW2vNhxdIj2-6">
          <mxGeometry width="50" height="50" relative="1" as="geometry">
            <mxPoint x="80" y="125" as="sourcePoint" />
            <mxPoint x="-100" y="85" as="targetPoint" />
          </mxGeometry>
        </mxCell>
        <mxCell id="0bq6ZQVKfzW2vNhxdIj2-14" value="No" style="edgeLabel;html=1;align=center;verticalAlign=middle;resizable=0;points=[];" connectable="0" vertex="1" parent="0bq6ZQVKfzW2vNhxdIj2-9">
          <mxGeometry x="-0.2391" y="1" relative="1" as="geometry">
            <mxPoint as="offset" />
          </mxGeometry>
        </mxCell>
        <mxCell id="0bq6ZQVKfzW2vNhxdIj2-5" value="&lt;font style=&quot;color: rgb(204, 0, 0);&quot;&gt;resolve node&lt;/font&gt;" style="rounded=1;whiteSpace=wrap;html=1;" vertex="1" parent="0bq6ZQVKfzW2vNhxdIj2-0">
          <mxGeometry x="194" y="62" width="120" height="36" as="geometry" />
        </mxCell>
        <mxCell id="0bq6ZQVKfzW2vNhxdIj2-19" value="" style="endArrow=classic;html=1;rounded=0;exitX=1;exitY=0.5;exitDx=0;exitDy=0;entryX=0;entryY=0.5;entryDx=0;entryDy=0;entryPerimeter=0;" edge="1" parent="0bq6ZQVKfzW2vNhxdIj2-0" source="0bq6ZQVKfzW2vNhxdIj2-4" target="0bq6ZQVKfzW2vNhxdIj2-5">
          <mxGeometry width="50" height="50" relative="1" as="geometry">
            <mxPoint x="120" y="85" as="sourcePoint" />
            <mxPoint x="450" y="85" as="targetPoint" />
          </mxGeometry>
        </mxCell>
        <mxCell id="0bq6ZQVKfzW2vNhxdIj2-12" value="return resolved values" style="strokeWidth=2;html=1;shape=mxgraph.flowchart.terminator;whiteSpace=wrap;" vertex="1" parent="WIyWlLk6GJQsqaUBKTNV-1">
          <mxGeometry x="364" y="160" width="100" height="60" as="geometry" />
        </mxCell>
        <mxCell id="0bq6ZQVKfzW2vNhxdIj2-13" value="" style="endArrow=classic;html=1;rounded=0;exitX=1;exitY=0.5;exitDx=0;exitDy=0;entryX=0;entryY=0.5;entryDx=0;entryDy=0;entryPerimeter=0;" edge="1" parent="WIyWlLk6GJQsqaUBKTNV-1" source="0bq6ZQVKfzW2vNhxdIj2-5" target="0bq6ZQVKfzW2vNhxdIj2-12">
          <mxGeometry width="50" height="50" relative="1" as="geometry">
            <mxPoint x="249" y="195" as="sourcePoint" />
            <mxPoint x="539" y="150" as="targetPoint" />
          </mxGeometry>
        </mxCell>
        <mxCell id="0bq6ZQVKfzW2vNhxdIj2-18" value="" style="endArrow=classic;html=1;rounded=0;edgeStyle=orthogonalEdgeStyle;exitX=1;exitY=0.25;exitDx=0;exitDy=0;entryX=0.5;entryY=1;entryDx=0;entryDy=0;entryPerimeter=0;" edge="1" parent="WIyWlLk6GJQsqaUBKTNV-1" source="0bq6ZQVKfzW2vNhxdIj2-6" target="0bq6ZQVKfzW2vNhxdIj2-12">
          <mxGeometry width="50" height="50" relative="1" as="geometry">
            <mxPoint x="269" y="285" as="sourcePoint" />
            <mxPoint x="629" y="225" as="targetPoint" />
            <Array as="points">
              <mxPoint x="100" y="285" />
              <mxPoint x="414" y="285" />
            </Array>
          </mxGeometry>
        </mxCell>
        <mxCell id="0bq6ZQVKfzW2vNhxdIj2-21" value="resolve parameters" style="swimlane;whiteSpace=wrap;html=1;" vertex="1" parent="WIyWlLk6GJQsqaUBKTNV-1">
          <mxGeometry x="-690" y="110" width="470" height="280" as="geometry" />
        </mxCell>
        <mxCell id="0bq6ZQVKfzW2vNhxdIj2-22" value="all parms&lt;br&gt;done" style="rhombus;whiteSpace=wrap;html=1;" vertex="1" parent="0bq6ZQVKfzW2vNhxdIj2-21">
          <mxGeometry x="300" y="40" width="80" height="80" as="geometry" />
        </mxCell>
        <mxCell id="0bq6ZQVKfzW2vNhxdIj2-23" value="parm no yet&lt;br&gt;resolved" style="rhombus;whiteSpace=wrap;html=1;" vertex="1" parent="0bq6ZQVKfzW2vNhxdIj2-21">
          <mxGeometry x="300" y="170" width="80" height="80" as="geometry" />
        </mxCell>
        <mxCell id="0bq6ZQVKfzW2vNhxdIj2-24" value="&lt;font style=&quot;color: rgb(255, 128, 0);&quot;&gt;resolve&lt;br&gt;&amp;nbsp;parameter&lt;/font&gt;" style="rounded=1;whiteSpace=wrap;html=1;" vertex="1" parent="0bq6ZQVKfzW2vNhxdIj2-21">
          <mxGeometry x="170" y="180" width="80" height="60" as="geometry" />
        </mxCell>
        <mxCell id="0bq6ZQVKfzW2vNhxdIj2-25" value="add resolved value&lt;br&gt;to parm" style="rounded=1;whiteSpace=wrap;html=1;" vertex="1" parent="0bq6ZQVKfzW2vNhxdIj2-21">
          <mxGeometry x="30" y="180" width="120" height="60" as="geometry" />
        </mxCell>
        <mxCell id="0bq6ZQVKfzW2vNhxdIj2-26" value="" style="endArrow=classic;html=1;rounded=0;entryX=0.5;entryY=0;entryDx=0;entryDy=0;exitX=0.5;exitY=1;exitDx=0;exitDy=0;" edge="1" parent="0bq6ZQVKfzW2vNhxdIj2-21" source="0bq6ZQVKfzW2vNhxdIj2-22" target="0bq6ZQVKfzW2vNhxdIj2-23">
          <mxGeometry width="50" height="50" relative="1" as="geometry">
            <mxPoint x="90" y="130" as="sourcePoint" />
            <mxPoint x="140" y="80" as="targetPoint" />
          </mxGeometry>
        </mxCell>
        <mxCell id="0bq6ZQVKfzW2vNhxdIj2-33" value="No" style="edgeLabel;html=1;align=center;verticalAlign=middle;resizable=0;points=[];" connectable="0" vertex="1" parent="0bq6ZQVKfzW2vNhxdIj2-26">
          <mxGeometry x="-0.1621" y="1" relative="1" as="geometry">
            <mxPoint as="offset" />
          </mxGeometry>
        </mxCell>
        <mxCell id="0bq6ZQVKfzW2vNhxdIj2-27" value="" style="endArrow=classic;html=1;rounded=0;entryX=1;entryY=0.5;entryDx=0;entryDy=0;exitX=0;exitY=0.5;exitDx=0;exitDy=0;" edge="1" parent="0bq6ZQVKfzW2vNhxdIj2-21" source="0bq6ZQVKfzW2vNhxdIj2-24" target="0bq6ZQVKfzW2vNhxdIj2-25">
          <mxGeometry width="50" height="50" relative="1" as="geometry">
            <mxPoint x="160" y="260" as="sourcePoint" />
            <mxPoint x="180" y="170" as="targetPoint" />
          </mxGeometry>
        </mxCell>
        <mxCell id="0bq6ZQVKfzW2vNhxdIj2-28" value="" style="endArrow=classic;html=1;rounded=0;entryX=1;entryY=0.5;entryDx=0;entryDy=0;exitX=0;exitY=0.5;exitDx=0;exitDy=0;" edge="1" parent="0bq6ZQVKfzW2vNhxdIj2-21" source="0bq6ZQVKfzW2vNhxdIj2-23" target="0bq6ZQVKfzW2vNhxdIj2-24">
          <mxGeometry width="50" height="50" relative="1" as="geometry">
            <mxPoint x="290" y="210" as="sourcePoint" />
            <mxPoint x="330" y="170" as="targetPoint" />
          </mxGeometry>
        </mxCell>
        <mxCell id="0bq6ZQVKfzW2vNhxdIj2-30" value="" style="endArrow=classic;html=1;rounded=0;entryX=0;entryY=0.5;entryDx=0;entryDy=0;edgeStyle=orthogonalEdgeStyle;" edge="1" parent="0bq6ZQVKfzW2vNhxdIj2-21" target="0bq6ZQVKfzW2vNhxdIj2-22">
          <mxGeometry width="50" height="50" relative="1" as="geometry">
            <mxPoint x="90" y="180" as="sourcePoint" />
            <mxPoint x="140" y="130" as="targetPoint" />
            <Array as="points">
              <mxPoint x="90" y="80" />
            </Array>
          </mxGeometry>
        </mxCell>
        <mxCell id="0bq6ZQVKfzW2vNhxdIj2-32" value="" style="endArrow=classic;html=1;rounded=0;entryX=0;entryY=0.5;entryDx=0;entryDy=0;entryPerimeter=0;" edge="1" parent="0bq6ZQVKfzW2vNhxdIj2-21" target="0bq6ZQVKfzW2vNhxdIj2-31">
          <mxGeometry width="50" height="50" relative="1" as="geometry">
            <mxPoint x="380" y="80" as="sourcePoint" />
            <mxPoint x="430" y="30" as="targetPoint" />
          </mxGeometry>
        </mxCell>
        <mxCell id="0bq6ZQVKfzW2vNhxdIj2-34" value="No" style="edgeLabel;html=1;align=center;verticalAlign=middle;resizable=0;points=[];" connectable="0" vertex="1" parent="0bq6ZQVKfzW2vNhxdIj2-32">
          <mxGeometry x="-0.1292" y="1" relative="1" as="geometry">
            <mxPoint x="1" as="offset" />
          </mxGeometry>
        </mxCell>
        <mxCell id="0bq6ZQVKfzW2vNhxdIj2-31" value="resolved values" style="strokeWidth=2;html=1;shape=mxgraph.flowchart.terminator;whiteSpace=wrap;" vertex="1" parent="WIyWlLk6GJQsqaUBKTNV-1">
          <mxGeometry x="-200" y="160" width="100" height="60" as="geometry" />
        </mxCell>
        <mxCell id="0bq6ZQVKfzW2vNhxdIj2-35" value="&lt;font style=&quot;color: rgb(255, 128, 0);&quot;&gt;resolve parameter&lt;/font&gt;" style="swimlane;whiteSpace=wrap;html=1;" vertex="1" parent="WIyWlLk6GJQsqaUBKTNV-1">
          <mxGeometry x="-690" y="410" width="470" height="270" as="geometry" />
        </mxCell>
        <mxCell id="0bq6ZQVKfzW2vNhxdIj2-36" value="parm is &lt;br&gt;dict" style="rhombus;whiteSpace=wrap;html=1;" vertex="1" parent="0bq6ZQVKfzW2vNhxdIj2-35">
          <mxGeometry x="50" y="46" width="80" height="80" as="geometry" />
        </mxCell>
        <mxCell id="0bq6ZQVKfzW2vNhxdIj2-37" value="parm is&amp;nbsp;&lt;br&gt;list" style="rhombus;whiteSpace=wrap;html=1;" vertex="1" parent="0bq6ZQVKfzW2vNhxdIj2-35">
          <mxGeometry x="195" y="46" width="80" height="80" as="geometry" />
        </mxCell>
        <mxCell id="0bq6ZQVKfzW2vNhxdIj2-38" value="&lt;font style=&quot;color: rgb(0, 204, 0);&quot;&gt;resolve complex&lt;br&gt;parm&lt;/font&gt;" style="rounded=1;whiteSpace=wrap;html=1;" vertex="1" parent="0bq6ZQVKfzW2vNhxdIj2-35">
          <mxGeometry x="30" y="170" width="120" height="50" as="geometry" />
        </mxCell>
        <mxCell id="0bq6ZQVKfzW2vNhxdIj2-39" value="&lt;font style=&quot;color: rgb(0, 0, 255);&quot;&gt;resolve list parm&lt;/font&gt;" style="rounded=1;whiteSpace=wrap;html=1;" vertex="1" parent="0bq6ZQVKfzW2vNhxdIj2-35">
          <mxGeometry x="175" y="170" width="120" height="50" as="geometry" />
        </mxCell>
        <mxCell id="0bq6ZQVKfzW2vNhxdIj2-40" value="&lt;font style=&quot;color: rgb(204, 0, 0);&quot;&gt;resolve node&lt;/font&gt;" style="rounded=1;whiteSpace=wrap;html=1;" vertex="1" parent="0bq6ZQVKfzW2vNhxdIj2-35">
          <mxGeometry x="318" y="56" width="120" height="60" as="geometry" />
        </mxCell>
        <mxCell id="0bq6ZQVKfzW2vNhxdIj2-42" value="" style="endArrow=classic;html=1;rounded=0;exitX=1;exitY=0.5;exitDx=0;exitDy=0;entryX=0;entryY=0.5;entryDx=0;entryDy=0;" edge="1" parent="0bq6ZQVKfzW2vNhxdIj2-35" source="0bq6ZQVKfzW2vNhxdIj2-36" target="0bq6ZQVKfzW2vNhxdIj2-37">
          <mxGeometry width="50" height="50" relative="1" as="geometry">
            <mxPoint x="130" y="90" as="sourcePoint" />
            <mxPoint x="180" y="40" as="targetPoint" />
          </mxGeometry>
        </mxCell>
        <mxCell id="0bq6ZQVKfzW2vNhxdIj2-50" value="no" style="edgeLabel;html=1;align=center;verticalAlign=middle;resizable=0;points=[];" connectable="0" vertex="1" parent="0bq6ZQVKfzW2vNhxdIj2-42">
          <mxGeometry x="-0.1093" relative="1" as="geometry">
            <mxPoint x="-1" as="offset" />
          </mxGeometry>
        </mxCell>
        <mxCell id="0bq6ZQVKfzW2vNhxdIj2-43" value="" style="endArrow=classic;html=1;rounded=0;entryX=0;entryY=0.5;entryDx=0;entryDy=0;exitX=1;exitY=0.5;exitDx=0;exitDy=0;" edge="1" parent="0bq6ZQVKfzW2vNhxdIj2-35" source="0bq6ZQVKfzW2vNhxdIj2-37" target="0bq6ZQVKfzW2vNhxdIj2-40">
          <mxGeometry width="50" height="50" relative="1" as="geometry">
            <mxPoint x="270" y="90" as="sourcePoint" />
            <mxPoint x="320" y="40" as="targetPoint" />
          </mxGeometry>
        </mxCell>
        <mxCell id="0bq6ZQVKfzW2vNhxdIj2-51" value="no" style="edgeLabel;html=1;align=center;verticalAlign=middle;resizable=0;points=[];" connectable="0" vertex="1" parent="0bq6ZQVKfzW2vNhxdIj2-43">
          <mxGeometry x="-0.1799" y="1" relative="1" as="geometry">
            <mxPoint as="offset" />
          </mxGeometry>
        </mxCell>
        <mxCell id="0bq6ZQVKfzW2vNhxdIj2-44" value="" style="endArrow=classic;html=1;rounded=0;exitX=0.5;exitY=1;exitDx=0;exitDy=0;entryX=0.5;entryY=0;entryDx=0;entryDy=0;" edge="1" parent="0bq6ZQVKfzW2vNhxdIj2-35" source="0bq6ZQVKfzW2vNhxdIj2-36" target="0bq6ZQVKfzW2vNhxdIj2-38">
          <mxGeometry width="50" height="50" relative="1" as="geometry">
            <mxPoint x="110" y="150" as="sourcePoint" />
            <mxPoint x="160" y="100" as="targetPoint" />
          </mxGeometry>
        </mxCell>
        <mxCell id="0bq6ZQVKfzW2vNhxdIj2-49" value="yes" style="edgeLabel;html=1;align=center;verticalAlign=middle;resizable=0;points=[];" connectable="0" vertex="1" parent="0bq6ZQVKfzW2vNhxdIj2-44">
          <mxGeometry x="-0.3206" y="2" relative="1" as="geometry">
            <mxPoint as="offset" />
          </mxGeometry>
        </mxCell>
        <mxCell id="0bq6ZQVKfzW2vNhxdIj2-45" value="" style="endArrow=classic;html=1;rounded=0;exitX=0.5;exitY=1;exitDx=0;exitDy=0;entryX=0.5;entryY=0;entryDx=0;entryDy=0;" edge="1" parent="0bq6ZQVKfzW2vNhxdIj2-35" source="0bq6ZQVKfzW2vNhxdIj2-37" target="0bq6ZQVKfzW2vNhxdIj2-39">
          <mxGeometry width="50" height="50" relative="1" as="geometry">
            <mxPoint x="330" y="190" as="sourcePoint" />
            <mxPoint x="380" y="140" as="targetPoint" />
          </mxGeometry>
        </mxCell>
        <mxCell id="0bq6ZQVKfzW2vNhxdIj2-52" value="yes" style="edgeLabel;html=1;align=center;verticalAlign=middle;resizable=0;points=[];" connectable="0" vertex="1" parent="0bq6ZQVKfzW2vNhxdIj2-45">
          <mxGeometry x="-0.1292" y="2" relative="1" as="geometry">
            <mxPoint as="offset" />
          </mxGeometry>
        </mxCell>
        <mxCell id="0bq6ZQVKfzW2vNhxdIj2-47" value="" style="endArrow=classic;html=1;rounded=0;exitX=0.5;exitY=1;exitDx=0;exitDy=0;edgeStyle=orthogonalEdgeStyle;" edge="1" parent="0bq6ZQVKfzW2vNhxdIj2-35" source="0bq6ZQVKfzW2vNhxdIj2-39">
          <mxGeometry width="50" height="50" relative="1" as="geometry">
            <mxPoint x="350" y="180" as="sourcePoint" />
            <mxPoint x="510" y="250" as="targetPoint" />
            <Array as="points">
              <mxPoint x="235" y="250" />
            </Array>
          </mxGeometry>
        </mxCell>
        <mxCell id="0bq6ZQVKfzW2vNhxdIj2-41" value="resolved values" style="strokeWidth=2;html=1;shape=mxgraph.flowchart.terminator;whiteSpace=wrap;" vertex="1" parent="WIyWlLk6GJQsqaUBKTNV-1">
          <mxGeometry x="-180" y="630" width="100" height="60" as="geometry" />
        </mxCell>
        <mxCell id="0bq6ZQVKfzW2vNhxdIj2-46" value="" style="endArrow=classic;html=1;rounded=0;exitX=0.5;exitY=1;exitDx=0;exitDy=0;entryX=0;entryY=0.5;entryDx=0;entryDy=0;entryPerimeter=0;edgeStyle=orthogonalEdgeStyle;" edge="1" parent="WIyWlLk6GJQsqaUBKTNV-1" source="0bq6ZQVKfzW2vNhxdIj2-38" target="0bq6ZQVKfzW2vNhxdIj2-41">
          <mxGeometry width="50" height="50" relative="1" as="geometry">
            <mxPoint x="-370" y="620" as="sourcePoint" />
            <mxPoint x="-320" y="570" as="targetPoint" />
            <Array as="points">
              <mxPoint x="-600" y="660" />
              <mxPoint x="-180" y="660" />
            </Array>
          </mxGeometry>
        </mxCell>
        <mxCell id="0bq6ZQVKfzW2vNhxdIj2-48" value="" style="endArrow=classic;html=1;rounded=0;exitX=0.5;exitY=1;exitDx=0;exitDy=0;edgeStyle=orthogonalEdgeStyle;" edge="1" parent="WIyWlLk6GJQsqaUBKTNV-1" source="0bq6ZQVKfzW2vNhxdIj2-40">
          <mxGeometry width="50" height="50" relative="1" as="geometry">
            <mxPoint x="-180" y="510" as="sourcePoint" />
            <mxPoint x="-180" y="660" as="targetPoint" />
            <Array as="points">
              <mxPoint x="-312" y="660" />
            </Array>
          </mxGeometry>
        </mxCell>
      </root>
    </mxGraphModel>
  </diagram>
</mxfile>
